<svg width="101" height="17" viewBox="0 0 101 17" fill="none" xmlns="http://www.w3.org/2000/svg">
<path d="M0.640381 16.2V1.08H4.00552V7.0632H10.6467V1.08H14.0118V16.2H10.6467V9.7848H4.00552V16.2H0.640381ZM17.5723 16.2V1.08H20.9375V7.0632H27.5786V1.08H30.9437V16.2H27.5786V9.7848H20.9375V16.2H17.5723ZM33.3899 11.5128V8.7912H40.5213V11.5128H33.3899ZM48.5417 16.4592C47.5017 16.4592 46.5954 16.3584 45.8228 16.1568C45.0502 15.9408 44.4039 15.6384 43.8839 15.2496C43.3639 14.8464 42.9628 14.3712 42.6805 13.824C42.4131 13.2624 42.2497 12.6504 42.1902 11.988H45.5554C45.6297 12.276 45.7337 12.5424 45.8674 12.7872C46.016 13.0176 46.2091 13.212 46.4468 13.3704C46.6845 13.5288 46.9742 13.6512 47.316 13.7376C47.6577 13.8096 48.0662 13.8456 48.5417 13.8456C49.0319 13.8456 49.4628 13.8096 49.8342 13.7376C50.2057 13.6512 50.5177 13.536 50.7702 13.392C51.0228 13.2336 51.2085 13.0536 51.3274 12.852C51.4611 12.636 51.5279 12.3912 51.5279 12.1176C51.5279 11.772 51.4462 11.4912 51.2828 11.2752C51.1342 11.0448 50.8965 10.8432 50.5697 10.6704C50.2577 10.4976 49.8565 10.3464 49.3662 10.2168C48.8759 10.0728 48.2965 9.9288 47.6279 9.7848C46.8257 9.612 46.1125 9.4104 45.4885 9.18C44.8645 8.9352 44.3445 8.6328 43.9285 8.2728C43.5125 7.9128 43.1931 7.4808 42.9702 6.9768C42.7474 6.4728 42.636 5.8608 42.636 5.1408C42.636 4.4784 42.7697 3.8808 43.0371 3.348C43.3194 2.8152 43.7131 2.3616 44.2182 1.9872C44.7382 1.6128 45.3622 1.3248 46.0902 1.1232C46.8182 0.921601 47.6354 0.820801 48.5417 0.820801C49.5074 0.820801 50.3468 0.921601 51.0599 1.1232C51.7731 1.3248 52.3674 1.6128 52.8428 1.9872C53.3331 2.3472 53.7119 2.7936 53.9794 3.3264C54.2468 3.8448 54.4177 4.428 54.4919 5.076H51.1045C51.0599 4.8168 50.9782 4.5864 50.8594 4.3848C50.7405 4.1832 50.5771 4.0176 50.3691 3.888C50.1611 3.744 49.9085 3.636 49.6114 3.564C49.3142 3.4776 48.9577 3.4344 48.5417 3.4344C48.0959 3.4344 47.7097 3.4776 47.3828 3.564C47.0708 3.6504 46.8108 3.7656 46.6028 3.9096C46.4097 4.0392 46.2611 4.2048 46.1571 4.4064C46.0531 4.5936 46.0011 4.8096 46.0011 5.0544C46.0011 5.3568 46.0754 5.616 46.2239 5.832C46.3725 6.048 46.5954 6.2352 46.8925 6.3936C47.1897 6.552 47.5537 6.696 47.9845 6.8256C48.4302 6.9408 48.9428 7.056 49.5222 7.1712C50.3691 7.344 51.1268 7.5528 51.7954 7.7976C52.4788 8.028 53.0434 8.3232 53.4891 8.6832C53.9497 9.0432 54.2988 9.4824 54.5365 10.0008C54.7742 10.5192 54.8931 11.1456 54.8931 11.88C54.8931 12.5712 54.7445 13.1976 54.4474 13.7592C54.1651 14.3208 53.7491 14.8032 53.1994 15.2064C52.6645 15.6096 52.0034 15.9192 51.2159 16.1352C50.4285 16.3512 49.5371 16.4592 48.5417 16.4592ZM64.3682 16.4592C63.3877 16.4592 62.4517 16.3152 61.5602 16.0272C60.6688 15.7392 59.8814 15.2856 59.1979 14.6664C58.5294 14.0328 57.9945 13.2336 57.5934 12.2688C57.2071 11.2896 57.014 10.116 57.014 8.748V8.316C57.014 7.0056 57.2071 5.8752 57.5934 4.9248C57.9945 3.9744 58.5294 3.1968 59.1979 2.592C59.8814 1.9872 60.6688 1.5408 61.5602 1.2528C62.4517 0.964801 63.3877 0.820801 64.3682 0.820801C65.3488 0.820801 66.2848 0.964801 67.1762 1.2528C68.0677 1.5408 68.8477 1.9872 69.5162 2.592C70.1997 3.1968 70.7345 3.9744 71.1208 4.9248C71.5219 5.8752 71.7225 7.0056 71.7225 8.316V8.748C71.7225 10.116 71.5219 11.2896 71.1208 12.2688C70.7345 13.2336 70.1997 14.0328 69.5162 14.6664C68.8477 15.2856 68.0677 15.7392 67.1762 16.0272C66.2848 16.3152 65.3488 16.4592 64.3682 16.4592ZM64.3682 13.6944C64.8734 13.6944 65.3562 13.6152 65.8168 13.4568C66.2774 13.284 66.686 13.0104 67.0425 12.636C67.3991 12.2472 67.6814 11.736 67.8894 11.1024C68.1122 10.4688 68.2237 9.684 68.2237 8.748V8.316C68.2237 7.4232 68.1122 6.6744 67.8894 6.0696C67.6814 5.4648 67.3991 4.9824 67.0425 4.6224C66.686 4.248 66.2774 3.9816 65.8168 3.8232C65.3562 3.6648 64.8734 3.5856 64.3682 3.5856C63.8631 3.5856 63.3802 3.6648 62.9197 3.8232C62.4591 3.9816 62.0505 4.248 61.6939 4.6224C61.3374 4.9824 61.0477 5.4648 60.8248 6.0696C60.6168 6.6744 60.5128 7.4232 60.5128 8.316V8.748C60.5128 9.684 60.6168 10.4688 60.8248 11.1024C61.0477 11.736 61.3374 12.2472 61.6939 12.636C62.0505 13.0104 62.4591 13.284 62.9197 13.4568C63.3802 13.6152 63.8631 13.6944 64.3682 13.6944ZM74.6141 16.2V1.08H85.3112V3.6504H77.9792V7.6248H84.6427V10.0872H77.9792V16.2H74.6141ZM92.1102 16.2V3.8016H87.1182V1.08H100.49V3.8016H95.4977V16.2H92.1102Z" fill="white"/>
</svg>
