<svg width="100" height="5" viewBox="0 0 100 5" fill="none" xmlns="http://www.w3.org/2000/svg">
<path d="M0.095459 4.39981V0.199805H1.64308C1.90308 0.199805 2.12594 0.227824 2.31165 0.283804C2.49736 0.339784 2.65008 0.417784 2.76974 0.517804C2.89355 0.613804 2.98437 0.731824 3.04212 0.871804C3.09988 1.00782 3.12879 1.15782 3.12879 1.3218C3.12879 1.4298 3.11226 1.53181 3.07927 1.62781C3.04627 1.71979 3.00083 1.80378 2.94308 1.8798C2.88532 1.9518 2.81723 2.01582 2.73879 2.0718C2.66036 2.12778 2.5758 2.1738 2.48498 2.2098C2.74498 2.26578 2.94723 2.3778 3.09165 2.5458C3.24022 2.7138 3.31451 2.93581 3.31451 3.21181C3.31451 3.38383 3.2856 3.54181 3.22784 3.68581C3.17008 3.82981 3.07927 3.9558 2.95546 4.0638C2.83165 4.16778 2.6707 4.2498 2.4726 4.3098C2.27865 4.3698 2.04342 4.39981 1.76689 4.39981H0.095459ZM0.677363 3.9078H1.76689C1.9526 3.9078 2.10736 3.89178 2.23117 3.8598C2.35498 3.8238 2.45403 3.77581 2.52832 3.71581C2.6026 3.65179 2.65417 3.57582 2.68308 3.4878C2.71607 3.39978 2.7326 3.30181 2.7326 3.19381C2.7326 3.08581 2.71607 2.98782 2.68308 2.8998C2.65417 2.80782 2.6026 2.7318 2.52832 2.6718C2.45403 2.60778 2.35294 2.55979 2.22498 2.52781C2.10117 2.49181 1.94641 2.47381 1.7607 2.47381H0.677363V3.9078ZM0.677363 2.0058H1.64308C1.81641 2.0058 1.96084 1.98978 2.07641 1.9578C2.19199 1.92582 2.28485 1.87981 2.35498 1.81981C2.42512 1.75981 2.47464 1.68978 2.50355 1.6098C2.53246 1.52982 2.54689 1.4418 2.54689 1.3458C2.54689 1.2498 2.53246 1.16179 2.50355 1.08181C2.47464 0.997805 2.42512 0.927784 2.35498 0.871804C2.28485 0.815824 2.19199 0.771786 2.07641 0.739806C1.96084 0.707826 1.81641 0.691805 1.64308 0.691805H0.677363V2.0058ZM4.30449 4.39981V0.199805H4.88639V4.39981H4.30449ZM6.18924 4.39981V0.199805H6.79591L8.24448 2.86981L9.69305 0.199805H10.275V4.39981H9.69305V1.21981L8.44876 3.4998H8.01543L6.77114 1.21981V4.39981H6.18924ZM13.6881 4.39981V1.6878H12.5676V1.21981H15.3533V1.6878H14.2328V4.39981H13.6881ZM17.2753 4.4598C17.0648 4.4598 16.8646 4.42782 16.6748 4.3638C16.4849 4.29978 16.3178 4.20181 16.1734 4.06981C16.0289 3.93379 15.9134 3.7638 15.8267 3.5598C15.74 3.3558 15.6967 3.11581 15.6967 2.83981V2.71981C15.6967 2.45581 15.7379 2.22781 15.8205 2.03581C15.903 1.83979 16.0124 1.67778 16.1486 1.5498C16.2889 1.4178 16.4498 1.31982 16.6315 1.2558C16.8172 1.19178 17.0111 1.1598 17.2134 1.1598C17.6962 1.1598 18.0697 1.28779 18.3338 1.54381C18.5979 1.79983 18.73 2.1618 18.73 2.6298V2.96581H16.2415C16.2415 3.14983 16.2724 3.30781 16.3343 3.43981C16.3962 3.56779 16.4767 3.67182 16.5757 3.7518C16.6748 3.83178 16.7841 3.8898 16.9038 3.9258C17.0277 3.9618 17.1515 3.9798 17.2753 3.9798C17.5229 3.9798 17.7127 3.93978 17.8448 3.8598C17.981 3.77982 18.0779 3.66978 18.1357 3.5298H18.6681C18.6351 3.68178 18.5753 3.81583 18.4886 3.93181C18.406 4.04779 18.3029 4.14582 18.1791 4.2258C18.0594 4.30182 17.9211 4.35979 17.7643 4.39981C17.6116 4.43983 17.4486 4.4598 17.2753 4.4598ZM16.2415 2.5338H18.2162C18.2121 2.36982 18.1832 2.23183 18.1296 2.11981C18.08 2.00383 18.0119 1.91179 17.9253 1.84381C17.8386 1.77181 17.7354 1.71978 17.6157 1.6878C17.5002 1.65582 17.3764 1.63981 17.2443 1.63981C17.1164 1.63981 16.9925 1.65781 16.8729 1.69381C16.7532 1.72579 16.6459 1.77978 16.551 1.8558C16.4602 1.9278 16.3859 2.01979 16.3281 2.13181C16.2703 2.24383 16.2415 2.3778 16.2415 2.5338ZM19.0429 4.39981L20.2748 2.78581L19.1048 1.21981H19.7362L20.6029 2.37781L21.4696 1.21981H22.0762L20.9062 2.7558L22.1381 4.39981H21.4943L20.5781 3.1578L19.6619 4.39981H19.0429ZM22.787 4.39981V1.21981H23.3317V2.5458H25.0279V1.21981H25.5727V4.39981H25.0279V3.0138H23.3317V4.39981H22.787ZM27.9272 4.4598C27.7167 4.4598 27.5166 4.42782 27.3267 4.3638C27.1369 4.29582 26.9697 4.1958 26.8253 4.0638C26.6809 3.92778 26.5653 3.7578 26.4787 3.5538C26.392 3.3498 26.3486 3.11179 26.3486 2.83981V2.71981C26.3486 2.45983 26.392 2.2338 26.4787 2.0418C26.5653 1.84578 26.6809 1.68378 26.8253 1.5558C26.9697 1.4238 27.1369 1.32582 27.3267 1.26181C27.5166 1.19383 27.7167 1.1598 27.9272 1.1598C28.1377 1.1598 28.3378 1.19383 28.5277 1.26181C28.7176 1.32582 28.8847 1.4238 29.0291 1.5558C29.1735 1.68378 29.2891 1.84578 29.3758 2.0418C29.4625 2.2338 29.5058 2.45983 29.5058 2.71981V2.83981C29.5058 3.11179 29.4625 3.3498 29.3758 3.5538C29.2891 3.7578 29.1735 3.92778 29.0291 4.0638C28.8847 4.1958 28.7176 4.29582 28.5277 4.3638C28.3378 4.42782 28.1377 4.4598 27.9272 4.4598ZM27.9272 3.9798C28.051 3.9798 28.1748 3.95983 28.2986 3.91981C28.4225 3.87583 28.5318 3.80982 28.6267 3.7218C28.7216 3.62982 28.798 3.5118 28.8558 3.3678C28.9177 3.2238 28.9487 3.04783 28.9487 2.83981V2.71981C28.9487 2.52781 28.9177 2.36383 28.8558 2.22781C28.798 2.09179 28.7216 1.97982 28.6267 1.8918C28.5318 1.80378 28.4225 1.73982 28.2986 1.6998C28.1748 1.65978 28.051 1.63981 27.9272 1.63981C27.8034 1.63981 27.6796 1.65978 27.5558 1.6998C27.432 1.73982 27.3226 1.80378 27.2277 1.8918C27.1328 1.97982 27.0544 2.09179 26.9925 2.22781C26.9347 2.36383 26.9058 2.52781 26.9058 2.71981V2.83981C26.9058 3.04783 26.9347 3.2238 26.9925 3.3678C27.0544 3.5118 27.1328 3.62982 27.2277 3.7218C27.3226 3.80982 27.432 3.87583 27.5558 3.91981C27.6796 3.95983 27.8034 3.9798 27.9272 3.9798ZM30.0619 4.4598C30.0455 4.4598 30.0289 4.4598 30.0124 4.4598C30 4.4598 29.9856 4.45783 29.9691 4.4538C29.9526 4.4538 29.9361 4.45183 29.9196 4.44781C29.9072 4.44781 29.8928 4.44582 29.8762 4.4418V3.9138C29.8845 3.91782 29.8969 3.91981 29.9134 3.91981C29.9299 3.91981 29.9485 3.91981 29.9691 3.91981C30.0641 3.91981 30.1445 3.89179 30.2105 3.83581C30.2766 3.77983 30.3302 3.68178 30.3715 3.5418C30.4128 3.40182 30.4437 3.2118 30.4643 2.9718C30.485 2.7318 30.4953 2.42778 30.4953 2.0598V1.21981H32.8477V4.39981H32.3029V1.6878H31.04V2.1798C31.04 2.6238 31.0194 2.99178 30.9781 3.2838C30.9369 3.57582 30.875 3.80983 30.7924 3.98581C30.7141 4.15783 30.6129 4.2798 30.4891 4.3518C30.3653 4.4238 30.2229 4.4598 30.0619 4.4598ZM35.1998 4.4598C34.9893 4.4598 34.7894 4.42782 34.5993 4.3638C34.4093 4.29582 34.2421 4.1958 34.0979 4.0638C33.9537 3.92778 33.8379 3.7578 33.7512 3.5538C33.6646 3.3498 33.6212 3.11179 33.6212 2.83981V2.71981C33.6212 2.45983 33.6646 2.2338 33.7512 2.0418C33.8379 1.84578 33.9537 1.68378 34.0979 1.5558C34.2421 1.4238 34.4093 1.32582 34.5993 1.26181C34.7894 1.19383 34.9893 1.1598 35.1998 1.1598C35.4103 1.1598 35.6102 1.19383 35.8003 1.26181C35.9903 1.32582 36.1575 1.4238 36.3017 1.5558C36.4459 1.68378 36.5617 1.84578 36.6484 2.0418C36.735 2.2338 36.7784 2.45983 36.7784 2.71981V2.83981C36.7784 3.11179 36.735 3.3498 36.6484 3.5538C36.5617 3.7578 36.4459 3.92778 36.3017 4.0638C36.1575 4.1958 35.9903 4.29582 35.8003 4.3638C35.6102 4.42782 35.4103 4.4598 35.1998 4.4598ZM35.1998 3.9798C35.3236 3.9798 35.4474 3.95983 35.5712 3.91981C35.695 3.87583 35.8046 3.80982 35.8993 3.7218C35.994 3.62982 36.0708 3.5118 36.1284 3.3678C36.1903 3.2238 36.2212 3.04783 36.2212 2.83981V2.71981C36.2212 2.52781 36.1903 2.36383 36.1284 2.22781C36.0708 2.09179 35.994 1.97982 35.8993 1.8918C35.8046 1.80378 35.695 1.73982 35.5712 1.6998C35.4474 1.65978 35.3236 1.63981 35.1998 1.63981C35.076 1.63981 34.9522 1.65978 34.8284 1.6998C34.7046 1.73982 34.595 1.80378 34.5003 1.8918C34.4056 1.97982 34.3269 2.09179 34.265 2.22781C34.2075 2.36383 34.1784 2.52781 34.1784 2.71981V2.83981C34.1784 3.04783 34.2075 3.2238 34.265 3.3678C34.3269 3.5118 34.4056 3.62982 34.5003 3.7218C34.595 3.80982 34.7046 3.87583 34.8284 3.91981C34.9522 3.95983 35.076 3.9798 35.1998 3.9798ZM37.5497 4.39981V1.21981H39.7783V1.6878H38.0945V4.39981H37.5497ZM40.3973 4.39981V1.21981H40.9421V3.61981L42.6383 1.21981H43.183V4.39981H42.6383V1.9998L40.9421 4.39981H40.3973ZM44.1754 4.39981V1.21981H44.7201V3.61981L46.4163 1.21981H46.9611V4.39981H46.4163V1.9998L44.7201 4.39981H44.1754ZM49.5016 4.39981V1.21981H50.0464V3.61981L51.7426 1.21981H52.2874V4.39981H51.7426V1.9998L50.0464 4.39981H49.5016ZM54.8273 5.5998V1.21981H55.3349V1.81981C55.3931 1.71181 55.4612 1.61778 55.5392 1.5378C55.6178 1.4538 55.7064 1.38379 55.8054 1.32781C55.9045 1.27183 56.0122 1.22982 56.1273 1.2018C56.2431 1.17378 56.3669 1.1598 56.4988 1.1598C56.7055 1.1598 56.8912 1.19383 57.0559 1.26181C57.2255 1.32582 57.3697 1.4238 57.4892 1.5558C57.6093 1.68378 57.6997 1.84578 57.7616 2.0418C57.8278 2.2338 57.8607 2.45983 57.8607 2.71981V2.83981C57.8607 3.10783 57.8278 3.34381 57.7616 3.54781C57.696 3.75181 57.6031 3.92179 57.483 4.05781C57.3636 4.18981 57.2193 4.28982 57.0497 4.35781C56.885 4.42579 56.7012 4.4598 56.4988 4.4598C56.2183 4.4598 55.9831 4.3998 55.793 4.2798C55.6073 4.1598 55.4674 4.0098 55.3721 3.8298V5.5998H54.8273ZM56.3749 3.9918C56.5074 3.9918 56.6312 3.96781 56.7464 3.91981C56.8621 3.86779 56.9612 3.79381 57.0435 3.69781C57.1302 3.60181 57.1964 3.4818 57.2416 3.3378C57.2911 3.1938 57.3159 3.02779 57.3159 2.83981V2.71981C57.3159 2.54383 57.2911 2.38981 57.2416 2.2578C57.1964 2.12178 57.1302 2.00779 57.0435 1.91581C56.9612 1.81981 56.8621 1.7478 56.7464 1.6998C56.6312 1.6518 56.5074 1.62781 56.3749 1.62781C56.2264 1.62781 56.0902 1.6518 55.9664 1.6998C55.8426 1.74378 55.7373 1.8078 55.6507 1.8918C55.564 1.97178 55.4959 2.06778 55.4464 2.1798C55.3968 2.29182 55.3721 2.41183 55.3721 2.53981V3.01981C55.3721 3.16381 55.3968 3.29581 55.4464 3.41581C55.4959 3.53581 55.564 3.6378 55.6507 3.7218C55.7373 3.8058 55.8426 3.87181 55.9664 3.91981C56.0902 3.96781 56.2264 3.9918 56.3749 3.9918ZM59.5711 4.4598C59.3934 4.4598 59.2343 4.4358 59.0944 4.3878C58.9539 4.33578 58.8363 4.26583 58.7416 4.17781C58.6462 4.08979 58.5744 3.98581 58.5249 3.86581C58.4754 3.74581 58.4506 3.61381 58.4506 3.46981C58.4506 3.31381 58.4754 3.17982 58.5249 3.0678C58.5744 2.95182 58.6444 2.85781 58.7354 2.78581C58.8301 2.71381 58.9477 2.66178 59.0882 2.6298C59.2281 2.5938 59.3872 2.5758 59.5649 2.5758H60.6297V2.3598C60.6297 2.22378 60.6129 2.10978 60.5801 2.0178C60.551 1.92582 60.5034 1.85178 60.4377 1.7958C60.3758 1.73982 60.2972 1.6998 60.2025 1.6758C60.1072 1.6518 59.9982 1.63981 59.8744 1.63981C59.7586 1.63981 59.6577 1.6518 59.5711 1.6758C59.4881 1.6998 59.4182 1.73178 59.3606 1.7718C59.3067 1.8078 59.2653 1.85178 59.2368 1.9038C59.2077 1.9518 59.1891 2.00382 59.1811 2.0598H58.6363C58.6444 1.93182 58.6796 1.8138 58.7416 1.7058C58.8072 1.59378 58.8938 1.49778 59.0016 1.4178C59.113 1.33782 59.2448 1.27579 59.3978 1.23181C59.55 1.18381 59.7197 1.1598 59.9054 1.1598C60.0991 1.1598 60.2743 1.18182 60.4316 1.2258C60.5882 1.26582 60.72 1.33183 60.8277 1.42381C60.9392 1.51579 61.0234 1.63381 61.0816 1.77781C61.1435 1.92181 61.1744 2.0958 61.1744 2.2998V3.58981C61.1744 3.75781 61.1744 3.90582 61.1744 4.0338C61.1781 4.15782 61.1887 4.2798 61.2054 4.39981H60.7287C60.7163 4.30783 60.7077 4.22178 60.7039 4.1418C60.6996 4.0578 60.6977 3.96378 60.6977 3.8598C60.6563 3.9438 60.5987 4.02181 60.5244 4.09381C60.4538 4.16581 60.3715 4.22983 60.2768 4.28581C60.1815 4.33783 60.0744 4.37983 59.9549 4.41181C59.8348 4.44379 59.7073 4.4598 59.5711 4.4598ZM59.6887 3.9798C59.8162 3.9798 59.9363 3.96379 60.0477 3.93181C60.1629 3.89581 60.2644 3.84583 60.3511 3.78181C60.4377 3.71383 60.5058 3.63181 60.5554 3.53581C60.6049 3.43579 60.6297 3.32382 60.6297 3.1998V2.9838H59.6577C59.4553 2.9838 59.2962 3.02382 59.1811 3.1038C59.0653 3.17982 59.0077 3.30181 59.0077 3.46981C59.0077 3.61783 59.061 3.73981 59.1687 3.83581C59.2801 3.93181 59.4535 3.9798 59.6887 3.9798ZM63.2507 4.4598C63.0446 4.4598 62.8588 4.43779 62.6936 4.39381C62.5326 4.34983 62.3946 4.28779 62.2788 4.20781C62.163 4.12381 62.0726 4.02379 62.0064 3.9078C61.9402 3.78781 61.9012 3.65178 61.8888 3.4998H62.4336C62.4459 3.57582 62.4726 3.64381 62.514 3.7038C62.5592 3.7638 62.6174 3.81582 62.6874 3.8598C62.7573 3.89982 62.8403 3.92982 62.935 3.9498C63.0297 3.96978 63.1349 3.9798 63.2507 3.9798C63.5355 3.9798 63.7416 3.93378 63.8698 3.8418C64.0016 3.7458 64.0678 3.6318 64.0678 3.4998C64.0678 3.3438 64.014 3.22182 63.9069 3.1338C63.7998 3.04182 63.6141 2.9958 63.3497 2.9958H62.7864V2.5638H63.3126C63.5398 2.5638 63.7007 2.5218 63.7955 2.4378C63.8945 2.3538 63.944 2.23578 63.944 2.0838C63.944 1.9638 63.8865 1.85982 63.7707 1.7718C63.6593 1.68378 63.4859 1.63981 63.2507 1.63981C62.9987 1.63981 62.8155 1.67982 62.6997 1.7598C62.5883 1.83582 62.5202 1.94581 62.4955 2.08981H61.9507C61.9631 1.95781 62.0002 1.83583 62.0621 1.72381C62.1284 1.60783 62.2169 1.50781 62.3283 1.42381C62.4397 1.33981 62.5716 1.27579 62.7245 1.23181C62.8811 1.18381 63.0569 1.1598 63.2507 1.1598C63.4612 1.1598 63.6426 1.18381 63.7955 1.23181C63.9521 1.27579 64.0821 1.33981 64.1855 1.42381C64.2888 1.50379 64.365 1.59978 64.4145 1.7118C64.464 1.82383 64.4888 1.94778 64.4888 2.0838C64.4888 2.23578 64.4498 2.36983 64.3712 2.48581C64.2926 2.59783 64.1669 2.68578 63.9936 2.7498C64.1093 2.77782 64.2059 2.81779 64.2845 2.86981C64.3631 2.91781 64.4269 2.97378 64.4764 3.0378C64.5259 3.10182 64.5612 3.17382 64.5816 3.2538C64.6021 3.32982 64.6126 3.41178 64.6126 3.4998C64.6126 3.6318 64.5835 3.75582 64.5259 3.8718C64.4684 3.98778 64.3817 4.08979 64.2659 4.17781C64.1545 4.26181 64.0121 4.32979 63.8388 4.38181C63.6698 4.43383 63.4736 4.4598 63.2507 4.4598ZM65.3889 5.5998V1.21981H65.8965V1.81981C65.9541 1.71181 66.0222 1.61778 66.1008 1.5378C66.1788 1.4538 66.2679 1.38379 66.367 1.32781C66.466 1.27183 66.5731 1.22982 66.6889 1.2018C66.804 1.17378 66.9278 1.1598 67.0603 1.1598C67.2665 1.1598 67.4522 1.19383 67.6175 1.26181C67.7865 1.32582 67.9307 1.4238 68.0508 1.5558C68.1703 1.68378 68.2613 1.84578 68.3232 2.0418C68.3888 2.2338 68.4222 2.45983 68.4222 2.71981V2.83981C68.4222 3.10783 68.3888 3.34381 68.3232 3.54781C68.2569 3.75181 68.1641 3.92179 68.0446 4.05781C67.9245 4.18981 67.7803 4.28982 67.6113 4.35781C67.446 4.42579 67.2621 4.4598 67.0603 4.4598C66.7793 4.4598 66.544 4.3998 66.3546 4.2798C66.1689 4.1598 66.0284 4.0098 65.9337 3.8298V5.5998H65.3889ZM66.9365 3.9918C67.0684 3.9918 67.1922 3.96781 67.3079 3.91981C67.4231 3.86779 67.5221 3.79381 67.6051 3.69781C67.6917 3.60181 67.7574 3.4818 67.8032 3.3378C67.8527 3.1938 67.8775 3.02779 67.8775 2.83981V2.71981C67.8775 2.54383 67.8527 2.38981 67.8032 2.2578C67.7574 2.12178 67.6917 2.00779 67.6051 1.91581C67.5221 1.81981 67.4231 1.7478 67.3079 1.6998C67.1922 1.6518 67.0684 1.62781 66.9365 1.62781C66.7879 1.62781 66.6517 1.6518 66.5279 1.6998C66.4041 1.74378 66.2989 1.8078 66.2122 1.8918C66.1256 1.97178 66.0575 2.06778 66.0079 2.1798C65.9584 2.29182 65.9337 2.41183 65.9337 2.53981V3.01981C65.9337 3.16381 65.9584 3.29581 66.0079 3.41581C66.0575 3.53581 66.1256 3.6378 66.2122 3.7218C66.2989 3.8058 66.4041 3.87181 66.5279 3.91981C66.6517 3.96781 66.7879 3.9918 66.9365 3.9918ZM70.132 4.4598C69.955 4.4598 69.7959 4.4358 69.6554 4.3878C69.5155 4.33578 69.3978 4.26583 69.3025 4.17781C69.2078 4.08979 69.1354 3.98581 69.0858 3.86581C69.0363 3.74581 69.0116 3.61381 69.0116 3.46981C69.0116 3.31381 69.0363 3.17982 69.0858 3.0678C69.1354 2.95182 69.2059 2.85781 69.2963 2.78581C69.3916 2.71381 69.5093 2.66178 69.6492 2.6298C69.7897 2.5938 69.9488 2.5758 70.1258 2.5758H71.1906V2.3598C71.1906 2.22378 71.1745 2.10978 71.1411 2.0178C71.1126 1.92582 71.0649 1.85178 70.9987 1.7958C70.9368 1.73982 70.8588 1.6998 70.7635 1.6758C70.6688 1.6518 70.5592 1.63981 70.4354 1.63981C70.3202 1.63981 70.2187 1.6518 70.132 1.6758C70.0497 1.6998 69.9798 1.73178 69.9216 1.7718C69.8683 1.8078 69.8268 1.85178 69.7977 1.9038C69.7693 1.9518 69.7507 2.00382 69.742 2.0598H69.1973C69.2059 1.93182 69.2406 1.8138 69.3025 1.7058C69.3688 1.59378 69.4554 1.49778 69.5625 1.4178C69.6739 1.33782 69.8064 1.27579 69.9587 1.23181C70.1116 1.18381 70.2806 1.1598 70.4663 1.1598C70.6607 1.1598 70.8359 1.18182 70.9925 1.2258C71.1497 1.26582 71.2816 1.33183 71.3887 1.42381C71.5001 1.51579 71.5849 1.63381 71.6425 1.77781C71.7044 1.92181 71.7354 2.0958 71.7354 2.2998V3.58981C71.7354 3.75781 71.7354 3.90582 71.7354 4.0338C71.7397 4.15782 71.7502 4.2798 71.7663 4.39981H71.2896C71.2773 4.30783 71.2692 4.22178 71.2649 4.1418C71.2612 4.0578 71.2587 3.96378 71.2587 3.8598C71.2178 3.9438 71.1596 4.02181 71.0854 4.09381C71.0154 4.16581 70.9331 4.22983 70.8377 4.28581C70.743 4.33783 70.6359 4.37983 70.5158 4.41181C70.3964 4.44379 70.2682 4.4598 70.132 4.4598ZM70.2497 3.9798C70.3778 3.9798 70.4973 3.96379 70.6087 3.93181C70.7245 3.89581 70.8254 3.84583 70.912 3.78181C70.9987 3.71383 71.0668 3.63181 71.1163 3.53581C71.1658 3.43579 71.1906 3.32382 71.1906 3.1998V2.9838H70.2187C70.0169 2.9838 69.8578 3.02382 69.742 3.1038C69.6269 3.17982 69.5687 3.30181 69.5687 3.46981C69.5687 3.61783 69.6226 3.73981 69.7296 3.83581C69.8411 3.93181 70.0144 3.9798 70.2497 3.9798ZM74.0593 4.4598C73.8451 4.4598 73.6427 4.41979 73.4526 4.33981C73.2632 4.25983 73.0979 4.14378 72.9574 3.9918C72.8212 3.8358 72.7122 3.64578 72.6293 3.4218C72.5513 3.19782 72.5117 2.94378 72.5117 2.6598V2.53981C72.5117 2.17981 72.5389 1.85982 72.5921 1.5798C72.646 1.29582 72.737 1.05582 72.8645 0.859804C72.997 0.659824 73.1678 0.503825 73.3783 0.391805C73.5931 0.279785 73.8612 0.215825 74.1831 0.199805C74.3156 0.191825 74.4369 0.187804 74.5483 0.187804C74.6598 0.183784 74.765 0.177785 74.864 0.169805C74.9631 0.157805 75.0541 0.143825 75.1364 0.127805C75.2194 0.111785 75.2937 0.0858047 75.3593 0.0498047V0.559804C75.3265 0.575824 75.2788 0.591785 75.2169 0.607805C75.1593 0.619805 75.085 0.631806 74.994 0.643806C74.9074 0.651786 74.8046 0.659824 74.6845 0.667804C74.565 0.675784 74.4288 0.681786 74.2759 0.685806C74.0778 0.689826 73.9026 0.713825 73.7497 0.757805C73.6012 0.801785 73.4737 0.871804 73.3659 0.967804C73.2632 1.0638 73.1802 1.1898 73.1183 1.3458C73.0608 1.49778 73.0236 1.68582 73.0069 1.9098C73.0564 1.8018 73.1208 1.7058 73.1988 1.6218C73.2774 1.5378 73.3659 1.4658 73.465 1.4058C73.564 1.3458 73.6736 1.29978 73.7931 1.2678C73.9169 1.23582 74.0469 1.21981 74.1831 1.21981C74.3936 1.21981 74.5855 1.25581 74.7588 1.32781C74.9321 1.39579 75.0807 1.49382 75.2045 1.6218C75.3327 1.74978 75.4317 1.90782 75.5016 2.0958C75.5722 2.27982 75.6069 2.48779 75.6069 2.71981V2.83981C75.6069 3.08383 75.5679 3.30582 75.4893 3.5058C75.4113 3.70578 75.3036 3.8778 75.1674 4.0218C75.0312 4.16178 74.8684 4.26978 74.6783 4.3458C74.4889 4.42182 74.2821 4.4598 74.0593 4.4598ZM74.0593 3.9798C74.2041 3.9798 74.336 3.95581 74.4555 3.9078C74.5793 3.85579 74.6845 3.78181 74.7712 3.68581C74.8578 3.58981 74.9259 3.47179 74.9755 3.33181C75.025 3.18781 75.0498 3.02383 75.0498 2.83981V2.71981C75.0498 2.56381 75.025 2.42382 74.9755 2.2998C74.9259 2.17578 74.8578 2.06983 74.7712 1.98181C74.6845 1.88983 74.5793 1.8198 74.4555 1.7718C74.336 1.7238 74.2041 1.6998 74.0593 1.6998C73.915 1.6998 73.7807 1.7238 73.6569 1.7718C73.5374 1.8198 73.434 1.88983 73.3474 1.98181C73.2607 2.06983 73.1926 2.17578 73.1431 2.2998C73.0936 2.42382 73.0688 2.56381 73.0688 2.71981V2.83981C73.0688 3.01579 73.0936 3.17581 73.1431 3.31981C73.1969 3.45979 73.2694 3.57978 73.3597 3.6798C73.4508 3.7758 73.556 3.84978 73.6755 3.9018C73.7956 3.95382 73.9231 3.9798 74.0593 3.9798ZM77.7414 4.4598C77.5309 4.4598 77.3303 4.42782 77.1409 4.3638C76.9508 4.29582 76.7837 4.1958 76.6395 4.0638C76.4946 3.92778 76.3795 3.7578 76.2928 3.5538C76.2061 3.3498 76.1628 3.11179 76.1628 2.83981V2.71981C76.1628 2.45983 76.2061 2.2338 76.2928 2.0418C76.3795 1.84578 76.4946 1.68378 76.6395 1.5558C76.7837 1.4238 76.9508 1.32582 77.1409 1.26181C77.3303 1.19383 77.5309 1.1598 77.7414 1.1598C77.9518 1.1598 78.1518 1.19383 78.3418 1.26181C78.5313 1.32582 78.6984 1.4238 78.8433 1.5558C78.9875 1.68378 79.1033 1.84578 79.1899 2.0418C79.2766 2.2338 79.3199 2.45983 79.3199 2.71981V2.83981C79.3199 3.11179 79.2766 3.3498 79.1899 3.5538C79.1033 3.7578 78.9875 3.92778 78.8433 4.0638C78.6984 4.1958 78.5313 4.29582 78.3418 4.3638C78.1518 4.42782 77.9518 4.4598 77.7414 4.4598ZM77.7414 3.9798C77.8652 3.9798 77.989 3.95983 78.1128 3.91981C78.2366 3.87583 78.3456 3.80982 78.4409 3.7218C78.5356 3.62982 78.6117 3.5118 78.6699 3.3678C78.7318 3.2238 78.7628 3.04783 78.7628 2.83981V2.71981C78.7628 2.52781 78.7318 2.36383 78.6699 2.22781C78.6117 2.09179 78.5356 1.97982 78.4409 1.8918C78.3456 1.80378 78.2366 1.73982 78.1128 1.6998C77.989 1.65978 77.8652 1.63981 77.7414 1.63981C77.6176 1.63981 77.4938 1.65978 77.3699 1.6998C77.2461 1.73982 77.1366 1.80378 77.0418 1.8918C76.9465 1.97982 76.8685 2.09179 76.8066 2.22781C76.7484 2.36383 76.7199 2.52781 76.7199 2.71981V2.83981C76.7199 3.04783 76.7484 3.2238 76.8066 3.3678C76.8685 3.5118 76.9465 3.62982 77.0418 3.7218C77.1366 3.80982 77.2461 3.87583 77.3699 3.91981C77.4938 3.95983 77.6176 3.9798 77.7414 3.9798ZM80.7796 4.39981V1.6878H79.6592V1.21981H82.4449V1.6878H81.3244V4.39981H80.7796ZM83.0658 4.39981V1.21981H83.6106V2.5518H84.0439L85.2696 1.21981H85.9134L84.4896 2.74381L85.9753 4.39981H85.282L84.0439 3.0078H83.6106V4.39981H83.0658ZM87.5006 4.4598C87.323 4.4598 87.1639 4.4358 87.024 4.3878C86.8835 4.33578 86.7658 4.26583 86.6711 4.17781C86.5758 4.08979 86.504 3.98581 86.4545 3.86581C86.4049 3.74581 86.3802 3.61381 86.3802 3.46981C86.3802 3.31381 86.4049 3.17982 86.4545 3.0678C86.504 2.95182 86.5739 2.85781 86.6649 2.78581C86.7597 2.71381 86.8773 2.66178 87.0178 2.6298C87.1577 2.5938 87.3168 2.5758 87.4945 2.5758H88.5592V2.3598C88.5592 2.22378 88.5425 2.10978 88.5097 2.0178C88.4806 1.92582 88.4329 1.85178 88.3673 1.7958C88.3054 1.73982 88.2268 1.6998 88.1321 1.6758C88.0367 1.6518 87.9278 1.63981 87.804 1.63981C87.6882 1.63981 87.5873 1.6518 87.5006 1.6758C87.4177 1.6998 87.3477 1.73178 87.2902 1.7718C87.2363 1.8078 87.1948 1.85178 87.1664 1.9038C87.1373 1.9518 87.1187 2.00382 87.1107 2.0598H86.5659C86.5739 1.93182 86.6092 1.8138 86.6711 1.7058C86.7367 1.59378 86.8234 1.49778 86.9311 1.4178C87.0426 1.33782 87.1744 1.27579 87.3273 1.23181C87.4796 1.18381 87.6492 1.1598 87.8349 1.1598C88.0287 1.1598 88.2039 1.18182 88.3611 1.2258C88.5177 1.26582 88.6496 1.33183 88.7573 1.42381C88.8688 1.51579 88.9529 1.63381 89.0111 1.77781C89.073 1.92181 89.104 2.0958 89.104 2.2998V3.58981C89.104 3.75781 89.104 3.90582 89.104 4.0338C89.1077 4.15782 89.1182 4.2798 89.1349 4.39981H88.6583C88.6459 4.30783 88.6372 4.22178 88.6335 4.1418C88.6292 4.0578 88.6273 3.96378 88.6273 3.8598C88.5858 3.9438 88.5283 4.02181 88.454 4.09381C88.3834 4.16581 88.3011 4.22983 88.2064 4.28581C88.111 4.33783 88.0039 4.37983 87.8845 4.41181C87.7644 4.44379 87.6368 4.4598 87.5006 4.4598ZM87.6183 3.9798C87.7458 3.9798 87.8659 3.96379 87.9773 3.93181C88.0925 3.89581 88.194 3.84583 88.2807 3.78181C88.3673 3.71383 88.4354 3.63181 88.4849 3.53581C88.5345 3.43579 88.5592 3.32382 88.5592 3.1998V2.9838H87.5873C87.3849 2.9838 87.2258 3.02382 87.1107 3.1038C86.9949 3.17982 86.9373 3.30181 86.9373 3.46981C86.9373 3.61783 86.9906 3.73981 87.0983 3.83581C87.2097 3.93181 87.383 3.9798 87.6183 3.9798ZM91.7374 4.39981V0.199805H95.1422V4.39981H94.5603V0.691805H92.3193V4.39981H91.7374ZM98.0517 4.4598C97.8041 4.4598 97.5645 4.41979 97.3336 4.33981C97.1027 4.25581 96.8984 4.12782 96.7207 3.9558C96.5431 3.78378 96.4007 3.56382 96.2936 3.2958C96.1865 3.02778 96.1327 2.70582 96.1327 2.3298V2.2098C96.1327 1.8498 96.1865 1.53978 96.2936 1.2798C96.4007 1.01982 96.5431 0.805804 96.7207 0.637804C96.8984 0.465784 97.1027 0.339784 97.3336 0.259804C97.5645 0.179824 97.8041 0.139806 98.0517 0.139806C98.2993 0.139806 98.5389 0.179824 98.7698 0.259804C99.0007 0.339784 99.205 0.465784 99.3827 0.637804C99.5603 0.805804 99.7027 1.01982 99.8098 1.2798C99.9169 1.53978 99.9707 1.8498 99.9707 2.2098V2.3298C99.9707 2.70582 99.9169 3.02778 99.8098 3.2958C99.7027 3.56382 99.5603 3.78378 99.3827 3.9558C99.205 4.12782 99.0007 4.25581 98.7698 4.33981C98.5389 4.41979 98.2993 4.4598 98.0517 4.4598ZM98.0517 3.9558C98.2207 3.9558 98.3841 3.92581 98.5407 3.86581C98.6974 3.80581 98.836 3.71178 98.9555 3.5838C99.075 3.4518 99.1703 3.2838 99.2403 3.0798C99.3146 2.87178 99.3517 2.62182 99.3517 2.3298V2.2098C99.3517 1.9338 99.3146 1.69782 99.2403 1.5018C99.1703 1.30182 99.075 1.13983 98.9555 1.01581C98.836 0.887825 98.6974 0.793804 98.5407 0.733804C98.3841 0.673804 98.2207 0.643806 98.0517 0.643806C97.8827 0.643806 97.7193 0.673804 97.5627 0.733804C97.406 0.793804 97.2674 0.887825 97.1479 1.01581C97.0284 1.13983 96.9312 1.30182 96.8569 1.5018C96.787 1.69782 96.7517 1.9338 96.7517 2.2098V2.3298C96.7517 2.62182 96.787 2.87178 96.8569 3.0798C96.9312 3.2838 97.0284 3.4518 97.1479 3.5838C97.2674 3.71178 97.406 3.80581 97.5627 3.86581C97.7193 3.92581 97.8827 3.9558 98.0517 3.9558Z" fill="white"/>
</svg>
